<svg width="60" height="60" viewBox="0 0 60 60" fill="none" xmlns="http://www.w3.org/2000/svg">
<path fill-rule="evenodd" clip-rule="evenodd" d="M42.211 4.87823C42.4022 4.56555 42.6802 4.3176 43.0098 4.16573C43.3393 4.01386 43.7057 3.96487 44.0627 4.02496L53.4713 5.62344C53.9497 5.70469 54.3768 5.97599 54.6588 6.37773C54.9408 6.77947 55.0547 7.27878 54.9753 7.76594L53.4091 17.3494C53.3493 17.7127 53.1851 18.0498 52.9372 18.3181C52.6894 18.5864 52.3689 18.7738 52.0165 18.8568C51.664 18.9397 51.2953 18.9144 50.9569 18.7841C50.6186 18.6537 50.3258 18.4242 50.1155 18.1244L47.5758 14.5101L34.4967 23.0205C33.939 23.3839 33.271 23.5297 32.6159 23.4311C31.9609 23.3325 31.363 22.9961 30.9323 22.4839L23.6389 13.8022L9.99994 20.9376C9.35258 21.2766 8.59948 21.3398 7.90633 21.1134C7.21317 20.887 6.63674 20.3895 6.30384 19.7304C5.97093 19.0712 5.90883 18.3044 6.13119 17.5987C6.35355 16.8929 6.84215 16.306 7.48952 15.967L23.0607 7.8181C23.6105 7.53055 24.2394 7.44032 24.8458 7.56205C25.4522 7.68377 26.0005 8.01031 26.4019 8.4888L33.5526 17.0029L44.3847 9.95315L42.2732 6.9462C42.0632 6.64635 41.9453 6.28988 41.9342 5.92182C41.9231 5.55375 42.0194 5.1906 42.211 4.87823ZM18.2558 23.1733L7.6359 29.3586C7.21636 29.6026 6.86751 29.955 6.62462 30.3803C6.38173 30.8055 6.2534 31.2886 6.2526 31.7805V53.2054C6.2526 54.748 7.4822 56 8.99724 56H18.2558V23.1733ZM22.8302 56H36.2533V30.618L30.2187 33.6883L24.1879 22.9422C23.8826 22.3963 23.4056 21.971 22.8338 21.735L22.8302 56ZM51.0816 56H40.8277V28.2892L49.8557 23.6912C50.2741 23.4785 50.739 23.3782 51.2062 23.3998C51.6734 23.4214 52.1275 23.5642 52.5252 23.8147C52.923 24.0652 53.2513 24.415 53.479 24.8309C53.7067 25.2469 53.8262 25.7152 53.8262 26.1914V53.2054C53.8262 53.9466 53.5371 54.6574 53.0224 55.1815C52.5076 55.7056 51.8095 56 51.0816 56Z" fill="#44B8BA"/>
</svg>
