<svg width="51" height="109" viewBox="0 0 51 109" fill="none" xmlns="http://www.w3.org/2000/svg">
<path d="M1.10177 105.909C0.876033 105.75 0.821964 105.438 0.981011 105.212L3.5728 101.533C3.73184 101.308 4.04377 101.254 4.26951 101.413C4.49525 101.572 4.54933 101.884 4.39028 102.109L2.08647 105.379L5.3564 107.683C5.58214 107.842 5.63621 108.154 5.47717 108.38C5.31812 108.606 5.00619 108.66 4.78045 108.501L1.10177 105.909ZM38.8898 1L39.3326 0.767836C41.0672 4.0765 42.5804 7.36547 43.8834 10.6256L43.4191 10.8111L42.9548 10.9967C41.6649 7.76915 40.1661 4.51126 38.4469 1.23216L38.8898 1ZM49.0471 31.6376L49.5422 31.568C50.607 39.1369 50.5573 46.4089 49.5596 53.248L49.0649 53.1758L48.5701 53.1036C49.5538 46.3605 49.6038 39.184 48.5519 31.7073L49.0471 31.6376ZM42.6623 73.7173L43.1094 73.9412C39.764 80.6181 35.3796 86.5019 30.2224 91.3764L29.8789 91.0131L29.5355 90.6497C34.6065 85.8567 38.9213 80.0677 42.2153 73.4933L42.6623 73.7173ZM11.7786 102.586L11.9615 103.051C8.58784 104.377 5.07973 105.368 1.47514 105.993L1.38975 105.5L1.30436 105.007C4.8411 104.394 8.28392 103.422 11.5957 102.12L11.7786 102.586Z" fill="#44B8BA"/>
</svg>
