<svg width="204" height="104" viewBox="0 0 204 104" fill="none" xmlns="http://www.w3.org/2000/svg">
<path d="M203.132 4.6173C203.293 4.84113 203.243 5.15369 203.019 5.31542L199.372 7.95095C199.148 8.11268 198.835 8.06234 198.674 7.83852C198.512 7.61469 198.562 7.30214 198.786 7.14041L202.028 4.79771L199.686 1.55553C199.524 1.3317 199.574 1.01914 199.798 0.857412C200.022 0.69568 200.334 0.746023 200.496 0.969847L203.132 4.6173ZM0.977722 103.316L0.534454 103.085C1.90566 100.457 3.4717 97.4452 5.26632 94.1448L5.70558 94.3837L6.14484 94.6225C4.35506 97.914 2.79313 100.918 1.42099 103.547L0.977722 103.316ZM16.0749 76.9336L15.6567 76.6596C19.1239 71.367 23.096 65.8223 27.6572 60.2422L28.0443 60.5586L28.4314 60.8751C23.8956 66.4242 19.9441 71.94 16.4932 77.2076L16.0749 76.9336ZM41.7763 45.6428L41.4297 45.2824C46.1375 40.7554 51.301 36.3374 56.968 32.1516L57.265 32.5538L57.5621 32.956C51.9322 37.1144 46.8016 41.5041 42.1228 46.0033L41.7763 45.6428ZM74.3517 21.6195L74.111 21.1812C79.8338 18.039 85.9625 15.1541 92.5276 12.605L92.7085 13.0711L92.8895 13.5372C86.3662 16.0701 80.2773 18.9363 74.5923 22.0578L74.3517 21.6195ZM112.034 6.93448L111.912 6.44957C118.228 4.86195 124.881 3.57206 131.892 2.62848L131.958 3.12401L132.025 3.61954C125.051 4.55819 118.435 5.84107 112.156 7.4194L112.034 6.93448ZM152.158 1.44178L152.14 0.942082C158.636 0.717227 165.399 0.771944 172.441 1.13556L172.415 1.63489L172.389 2.13423C165.375 1.77205 158.641 1.71765 152.175 1.94148L152.158 1.44178ZM192.633 3.4555L192.696 2.95948C196.01 3.37988 199.38 3.86473 202.806 4.41651L202.726 4.91014L202.647 5.40378C199.232 4.85376 195.873 4.3705 192.571 3.95153L192.633 3.4555Z" fill="#44B8BA"/>
</svg>
