<svg width="204" height="104" viewBox="0 0 204 104" fill="none" xmlns="http://www.w3.org/2000/svg">
<path d="M202.952 99.8178C203.114 99.5939 203.064 99.2814 202.84 99.1196L199.192 96.4841C198.969 96.3224 198.656 96.3727 198.494 96.5965C198.333 96.8204 198.383 97.1329 198.607 97.2947L201.849 99.6374L199.506 102.88C199.345 103.103 199.395 103.416 199.619 103.578C199.843 103.739 200.155 103.689 200.317 103.465L202.952 99.8178ZM0.798492 1.1189L0.355225 1.35023C1.72643 3.97768 3.29247 6.98986 5.08709 10.2902L5.52635 10.0514L5.96561 9.81253C4.17583 6.52106 2.6139 3.51682 1.24176 0.887566L0.798492 1.1189ZM15.8957 27.5015L15.4775 27.7755C18.9447 33.068 22.9167 38.6128 27.4779 44.1929L27.8651 43.8764L28.2522 43.56C23.7163 38.0109 19.7648 32.4951 16.314 27.2275L15.8957 27.5015ZM41.597 58.7922L41.2505 59.1526C45.9583 63.6797 51.1218 68.0976 56.7887 72.2835L57.0858 71.8813L57.3829 71.4791C51.7529 67.3206 46.6224 62.9309 41.9436 58.4318L41.597 58.7922ZM74.1725 82.8155L73.9318 83.2538C79.6546 86.3961 85.7833 89.281 92.3483 91.8301L92.5293 91.364L92.7103 90.8979C86.1869 88.365 80.0981 85.4987 74.4131 82.3773L74.1725 82.8155ZM111.855 97.5006L111.733 97.9855C118.048 99.5731 124.702 100.863 131.712 101.807L131.779 101.311L131.846 100.816C124.872 99.8769 118.255 98.594 111.977 97.0157L111.855 97.5006ZM151.978 102.993L151.961 103.493C158.457 103.718 165.22 103.663 172.262 103.3L172.236 102.8L172.21 102.301C165.196 102.663 158.462 102.717 151.996 102.494L151.978 102.993ZM192.454 100.98L192.517 101.476C195.831 101.055 199.201 100.57 202.627 100.019L202.547 99.5249L202.468 99.0313C199.053 99.5813 195.694 100.065 192.391 100.484L192.454 100.98Z" fill="#44B8BA"/>
</svg>
