<svg width="60" height="60" viewBox="0 0 60 60" fill="none" xmlns="http://www.w3.org/2000/svg">
<path d="M59.6016 25.2914L53.6203 13.3242C53.4 12.8837 53.095 12.491 52.7229 12.1684C52.3507 11.8458 51.9187 11.5996 51.4514 11.444C50.9841 11.2884 50.4908 11.2264 49.9995 11.2614C49.5083 11.2965 49.0287 11.428 48.5883 11.6484L42.7594 14.5617L30.4805 11.3133C30.1654 11.2313 29.8346 11.2313 29.5195 11.3133L17.2406 14.5617L11.4117 11.6484C10.9713 11.428 10.4918 11.2965 10.0005 11.2614C9.50923 11.2264 9.01588 11.2884 8.5486 11.444C8.08132 11.5996 7.64928 11.8458 7.27713 12.1684C6.90499 12.491 6.60003 12.8837 6.37969 13.3242L0.398442 25.289C0.178026 25.7295 0.0465284 26.209 0.0114576 26.7003C-0.0236131 27.1915 0.0384302 27.6849 0.194044 28.1522C0.349659 28.6194 0.595796 29.0515 0.918399 29.4236C1.241 29.7958 1.63375 30.1007 2.07422 30.3211L8.40235 33.4875L21.4078 42.7758C21.5996 42.9119 21.8149 43.0113 22.043 43.0687L37.043 46.8187C37.3571 46.8975 37.6863 46.8936 37.9984 46.8073C38.3106 46.7211 38.5951 46.5554 38.8242 46.3265L48.1992 36.9515L51.7336 33.4172L57.9258 30.3211C58.8147 29.8761 59.4906 29.0963 59.8049 28.1531C60.1191 27.21 60.046 26.1806 59.6016 25.2914ZM46.7367 33.1125L38.6719 26.6531C38.3106 26.3638 37.855 26.2183 37.3929 26.2447C36.9308 26.2711 36.4948 26.4675 36.1688 26.7961C31.9945 31.0008 27.3422 30.4687 24.375 28.5937L34.5094 18.75H41.9648L48.3422 31.5023L46.7367 33.1125ZM36.9234 42.9234L23.3016 39.5179L11.7703 31.282L18.3328 18.157L30 15.0656L32.2969 15.6726L21.75 25.9101L21.7313 25.9312C21.3342 26.3282 21.0314 26.8093 20.8452 27.339C20.659 27.8687 20.594 28.4334 20.6552 28.9916C20.7164 29.5497 20.9022 30.0869 21.1987 30.5637C21.4953 31.0404 21.8951 31.4445 22.3688 31.7461C27.1875 34.8234 33.0023 34.3242 37.582 30.5742L44.0625 35.7797L36.9234 42.9234ZM30.8953 51.0797C30.794 51.4849 30.5603 51.8447 30.2312 52.102C29.9022 52.3593 29.4966 52.4994 29.0789 52.5C28.9248 52.5001 28.7713 52.4812 28.6219 52.4437L18.8461 49.9992C18.6177 49.9428 18.4021 49.8434 18.2109 49.7062L12.0352 45.2953C11.6554 44.9971 11.4053 44.564 11.337 44.0861C11.2686 43.6082 11.3872 43.1223 11.6681 42.7296C11.949 42.337 12.3706 42.0678 12.845 41.9781C13.3193 41.8885 13.81 41.9853 14.2148 42.2484L20.1 46.4531L29.5313 48.8062C30.0136 48.9269 30.4282 49.2342 30.684 49.6605C30.9398 50.0868 31.0158 50.5973 30.8953 51.0797Z" fill="white"/>
</svg>
