<svg width="39" height="74" viewBox="0 0 39 74" fill="none" xmlns="http://www.w3.org/2000/svg">
<path d="M1.0925 70.4904C0.881992 70.3116 0.856227 69.9961 1.03495 69.7856L3.94739 66.3552C4.12611 66.1447 4.44165 66.1189 4.65215 66.2976C4.86266 66.4764 4.88843 66.7919 4.70971 67.0024L2.12087 70.0516L5.17011 72.6405C5.38062 72.8192 5.40639 73.1347 5.22766 73.3452C5.04894 73.5558 4.73341 73.5815 4.5229 73.4028L1.0925 70.4904ZM33.4817 1.0481L33.9436 0.856741C35.4411 4.47167 36.5896 8.02406 37.4181 11.4941L36.9318 11.6103L36.4454 11.7264C35.6296 8.30947 34.4977 4.80733 33.0198 1.23945L33.4817 1.0481ZM37.9369 33.6796L38.4305 33.7593C37.1595 41.6294 34.1312 48.6031 29.8864 54.3141L29.4851 54.0159L29.0838 53.7176C33.2315 48.1372 36.1975 41.3138 37.4433 33.5999L37.9369 33.6796ZM12.1914 67.5454L12.3784 68.0091C8.89936 69.4123 5.2273 70.2996 1.4568 70.6075L1.4161 70.1092L1.37541 69.6109C5.0427 69.3114 8.61625 68.4482 12.0044 67.0817L12.1914 67.5454Z" fill="#44B8BA"/>
</svg>
